<?xml version="1.0" encoding="UTF-8"?>
<svg xmlns="http://www.w3.org/2000/svg" xmlns:xlink="http://www.w3.org/1999/xlink" width="24pt" height="24pt" viewBox="0 0 24 24" version="1.1">
<g id="surface1">
<path style=" stroke:none;fill-rule:nonzero;fill:rgb(0.784314%,0.784314%,0.392157%);fill-opacity:1;" d="M 21.300781 18.402344 C 21.046875 17.636719 20.585938 16.867188 19.902344 16.417969 C 18.589844 15.546875 17.0625 15.082031 15.585938 14.585938 C 15.230469 14.460938 14.867188 14.324219 14.542969 14.128906 C 14.25 13.957031 14.140625 13.601562 14.074219 13.292969 C 14.042969 13.125 14.027344 12.957031 14.015625 12.792969 C 15.085938 11.324219 15.796875 8.933594 15.796875 6.972656 C 15.796875 3.910156 14.070312 3.058594 11.933594 3.058594 C 9.800781 3.058594 8.074219 3.910156 8.074219 6.972656 C 8.074219 9.003906 8.835938 11.496094 9.972656 12.941406 C 9.960938 13.058594 9.945312 13.171875 9.925781 13.285156 C 9.859375 13.597656 9.75 13.945312 9.457031 14.117188 C 9.132812 14.308594 8.769531 14.433594 8.414062 14.558594 C 6.9375 15.054688 5.410156 15.492188 4.097656 16.363281 C 3.414062 16.8125 2.953125 17.636719 2.699219 18.402344 C 2.4375 19.195312 2.328125 20.179688 2.34375 20.976562 L 21.65625 20.976562 C 21.671875 20.179688 21.5625 19.195312 21.300781 18.402344 Z M 21.300781 18.402344 "/>
</g>
</svg>
